<?xml version="1.0" encoding="UTF-8" standalone="no"?>
<svg
   xmlns:dc="http://purl.org/dc/elements/1.1/"
   xmlns:cc="http://creativecommons.org/ns#"
   xmlns:rdf="http://www.w3.org/1999/02/22-rdf-syntax-ns#"
   xmlns:svg="http://www.w3.org/2000/svg"
   xmlns="http://www.w3.org/2000/svg"
   xmlns:sodipodi="http://sodipodi.sourceforge.net/DTD/sodipodi-0.dtd"
   xmlns:inkscape="http://www.inkscape.org/namespaces/inkscape"
   id="Layer_1"
   style="enable-background:new 0 0 56.7 56.7;"
   version="1.1"
   viewBox="0 0 56.7 56.7"
   xml:space="preserve"
   sodipodi:docname="iconfinder_79-upwork_1929180.svg"
   inkscape:version="0.92.5 (2060ec1f9f, 2020-04-08)"><metadata
     id="metadata3793"><rdf:RDF><cc:Work
         rdf:about=""><dc:format>image/svg+xml</dc:format><dc:type
           rdf:resource="http://purl.org/dc/dcmitype/StillImage" /><dc:title></dc:title></cc:Work></rdf:RDF></metadata><defs
     id="defs3791" /><sodipodi:namedview
     pagecolor="#ffffff"
     bordercolor="#666666"
     borderopacity="1"
     objecttolerance="10"
     gridtolerance="10"
     guidetolerance="10"
     inkscape:pageopacity="0"
     inkscape:pageshadow="2"
     inkscape:window-width="1920"
     inkscape:window-height="1016"
     id="namedview3789"
     showgrid="false"
     inkscape:zoom="16.64903"
     inkscape:cx="21.638209"
     inkscape:cy="23.930679"
     inkscape:window-x="0"
     inkscape:window-y="27"
     inkscape:window-maximized="1"
     inkscape:current-layer="Layer_1" /><path
     d="M42.4,17.7c-5.3,0-9.3,3.5-10.9,9c-2.5-3.9-4.5-8.3-5.6-12.1h-5.6v14.7c0,2.9-2.4,5.3-5.3,5.3c-2.9,0-5.3-2.4-5.3-5.3V14.7  H4.3v14.7c0,6.1,4.9,11,10.9,11c6,0,10.9-4.9,10.9-11v-2.5c1.1,2.2,2.5,4.6,4,6.7l-3.5,16.3h5.7L34.7,38c2.2,1.4,4.7,2.2,7.7,2.2  c6.1,0,11.1-5,11.1-11.4C53.5,22.7,48.5,17.7,42.4,17.7z M42.4,34.6c-2.2,0-4.5-1-6.3-2.5l0.6-2.2v-0.1c0.4-2.4,1.7-6.4,5.8-6.4  c3.1,0,5.6,2.5,5.6,5.6C48,32.1,45.3,34.6,42.4,34.6z"
     id="path3786"
     style="fill:#ffffff;fill-opacity:1;stroke:#000000;stroke-opacity:1" /></svg>